<svg id="Layer_1" enable-background="new 0 0 512 512" height="512" viewBox="0 0 512 512" width="512" xmlns="http://www.w3.org/2000/svg"><g><path d="m79.267 144.6c9.447 0 17.134-7.686 17.134-17.133s-7.687-17.133-17.134-17.133-17.133 7.686-17.133 17.133 7.685 17.133 17.133 17.133z"/><path d="m432.733 144.6c9.447 0 17.134-7.686 17.134-17.133s-7.687-17.133-17.134-17.133-17.133 7.686-17.133 17.133 7.686 17.133 17.133 17.133z"/><path d="m294.565 101.4v48.2h64.801v-102.467c0-8.284-6.716-15-15-15h-150.667c-8.284 0-15 6.716-15 15v39.267h100.866c8.285 0 15 6.716 15 15z"/><path d="m359.366 215.373v-35.773h-77.622c-6.909 8.451-14.455 12.913-18.802 15.086 6.856 9.598 10.557 21.07 10.557 33.113v20.643c0 8.077-6.207 15.027-14.275 15.407-8.614.406-15.725-6.458-15.725-14.983v-21.066c0-14.963-12.075-27.053-26.984-27.133-6.323-.034-12.183-3.724-14.241-9.703-3.62-10.515 4.094-20.297 14.092-20.297h21.066c14.951 0 27.133-12.096 27.133-27.133v-27.134h-82.325c-5.682 0-10.875 3.21-13.417 8.292l-25.55 51.099c-2.541 5.082-1.993 11.163 1.416 15.708l52.075 69.434c1.947 2.596 3 5.754 3 9v209.934h117.467v-209.934c0-3.979 1.58-7.794 4.394-10.607l33.347-33.346c2.814-2.813 4.394-6.629 4.394-10.607z"/><path d="m497 142.467c8.284 0 15-6.716 15-15s-6.716-15-15-15h-19.594c1.588 4.715 2.462 9.756 2.462 15s-.874 10.285-2.462 15z"/><path d="m15 142.467h19.595c-1.588-4.715-2.461-9.756-2.461-15s.874-10.285 2.461-15h-19.595c-8.284 0-15 6.716-15 15s6.716 15 15 15z"/><path d="m126.395 142.467 15-30h-17.456c1.588 4.715 2.462 9.756 2.462 15s-.874 10.285-2.462 15z"/><path d="m143.533 305.267h-128.533c-8.284 0-15 6.716-15 15v16.083c0 44.453 36.197 79.25 79.25 79.25h.033c43.057 0 79.25-34.802 79.25-79.25v-16.083c0-8.285-6.716-15-15-15z"/><path d="m60.227 275.267 19.04-63.465 19.04 63.465h31.321l-31.4-104.663c-5.806 2.562-12.218 3.996-18.961 3.996s-13.155-1.434-18.961-3.996l-31.4 104.663z"/><path d="m432.733 211.801 19.04 63.465h31.321l-31.399-104.663c-5.806 2.562-12.218 3.996-18.961 3.996s-13.155-1.434-18.961-3.996l-31.399 104.663h31.321z"/><path d="m497 305.267h-128.533c-8.284 0-15 6.716-15 15v16.083c0 44.453 36.197 79.25 79.25 79.25h.033c43.057 0 79.25-34.802 79.25-79.25v-16.083c0-8.285-6.716-15-15-15z"/></g></svg>